<?xml version="1.0" encoding="UTF-8" standalone="no"?>
<svg
   xmlns:dc="http://purl.org/dc/elements/1.1/"
   xmlns:cc="http://creativecommons.org/ns#"
   xmlns:rdf="http://www.w3.org/1999/02/22-rdf-syntax-ns#"
   xmlns:svg="http://www.w3.org/2000/svg"
   xmlns="http://www.w3.org/2000/svg"
   xmlns:sodipodi="http://sodipodi.sourceforge.net/DTD/sodipodi-0.dtd"
   xmlns:inkscape="http://www.inkscape.org/namespaces/inkscape"
   viewBox="0 0 16 16"
   id="svg2"
   version="1.1"
   inkscape:version="0.48.4 r9939"
   width="100%"
   height="100%"
   sodipodi:docname="method.svg">
  <metadata
     id="metadata14">
    <rdf:RDF>
      <cc:Work
         rdf:about="">
        <dc:format>image/svg+xml</dc:format>
        <dc:type
           rdf:resource="http://purl.org/dc/dcmitype/StillImage" />
      </cc:Work>
    </rdf:RDF>
  </metadata>
  <defs
     id="defs12" />
  <sodipodi:namedview
     pagecolor="#ffffff"
     bordercolor="#666666"
     borderopacity="1"
     objecttolerance="10"
     gridtolerance="10"
     guidetolerance="10"
     inkscape:pageopacity="0"
     inkscape:pageshadow="2"
     inkscape:window-width="708"
     inkscape:window-height="480"
     id="namedview10"
     showgrid="false"
     inkscape:zoom="14.75"
     inkscape:cx="8"
     inkscape:cy="8"
     inkscape:window-x="2337"
     inkscape:window-y="285"
     inkscape:window-maximized="0"
     inkscape:current-layer="svg2" />
  <style
     id="style4">.icon-canvas-transparent{opacity:0;fill:#f6f6f6}.icon-vs-out{fill:#f6f6f6}.icon-vs-fg{fill:#f0eff1}.icon-vs-action-purple{fill:#652d90}</style>
  <path
     class="icon-canvas-transparent"
     d="M16 16H0V0h16v16z"
     id="canvas" />
  <path
     class="icon-vs-out"
     d="M15 3.349v8.403L8.975 16H8.07L1 11.582V3.327L7.595 0h1.118L15 3.349z"
     id="outline" />
  <path
     class="icon-vs-fg"
     d="M12.715 4.398L8.487 7.02 3.565 4.272l4.578-2.309 4.572 2.435zM3 5.102l5 2.792v5.705l-5-3.125V5.102zm6 8.434V7.878l4-2.48v5.317l-4 2.821z"
     id="iconFg" />
  <path
     class="icon-vs-action-purple"
     d="M8.156.837L2 3.942v7.085L8.517 15.1 14 11.233V3.95L8.156.837zm4.559 3.561L8.487 7.02 3.565 4.272l4.578-2.309 4.572 2.435zM3 5.102l5 2.792v5.705l-5-3.125V5.102zm6 8.434V7.878l4-2.48v5.317l-4 2.821z"
     id="iconBg"
     style="fill:#0088d2;fill-opacity:1" />
</svg>
